<?xml version="1.0" encoding="utf-8"?>
<!-- Generator: Adobe Illustrator 13.0.2, SVG Export Plug-In . SVG Version: 6.00 Build 14948)  -->
<!DOCTYPE svg PUBLIC "-//W3C//DTD SVG 1.1//EN" "http://www.w3.org/Graphics/SVG/1.1/DTD/svg11.dtd">
<svg version="1.1" id="Ebene_1" xmlns="http://www.w3.org/2000/svg" xmlns:xlink="http://www.w3.org/1999/xlink" x="0px" y="0px"
	 width="14.35px" height="42.88px" viewBox="0 0 14.35 42.88" enable-background="new 0 0 14.35 42.88" xml:space="preserve">
<g>
	<path d="M1.509,25.549l2.109-0.281c0.242,1.195,0.654,2.057,1.236,2.584s1.291,0.791,2.127,0.791c0.992,0,1.83-0.344,2.514-1.031
		s1.025-1.539,1.025-2.555c0-0.969-0.316-1.768-0.949-2.396s-1.438-0.943-2.414-0.943c-0.398,0-0.895,0.078-1.488,0.234L5.903,20.1
		c0.141,0.016,0.254,0.023,0.34,0.023c0.898,0,1.707-0.234,2.426-0.703s1.078-1.191,1.078-2.168c0-0.773-0.262-1.414-0.785-1.922
		s-1.199-0.762-2.027-0.762c-0.82,0-1.504,0.258-2.051,0.773s-0.898,1.289-1.055,2.32L1.72,17.288
		c0.258-1.414,0.844-2.51,1.758-3.287s2.051-1.166,3.41-1.166c0.938,0,1.801,0.201,2.59,0.604s1.393,0.951,1.811,1.646
		s0.627,1.434,0.627,2.215c0,0.742-0.199,1.418-0.598,2.027s-0.988,1.094-1.77,1.453c1.016,0.234,1.805,0.721,2.367,1.459
		s0.844,1.662,0.844,2.771c0,1.5-0.547,2.771-1.641,3.814s-2.477,1.564-4.148,1.564c-1.508,0-2.76-0.449-3.756-1.348
		S1.649,26.979,1.509,25.549z"/>
</g>
</svg>
