<?xml version="1.0" encoding="UTF-8" standalone="no"?>
<svg
   width="100mm"
   height="100mm"
   viewBox="0 0 100 100"
   version="1.1"
   id="svg140"
   inkscape:version="1.1.1 (3bf5ae0d25, 2021-09-20)"
   sodipodi:docname="logo.svg"
   xmlns:inkscape="http://www.inkscape.org/namespaces/inkscape"
   xmlns:sodipodi="http://sodipodi.sourceforge.net/DTD/sodipodi-0.dtd"
   xmlns="http://www.w3.org/2000/svg"
   xmlns:svg="http://www.w3.org/2000/svg"
   xmlns:rdf="http://www.w3.org/1999/02/22-rdf-syntax-ns#"
   xmlns:cc="http://creativecommons.org/ns#"
   xmlns:dc="http://purl.org/dc/elements/1.1/">
  <defs
     id="defs134" />
  <sodipodi:namedview
     id="base"
     pagecolor="#ffffff"
     bordercolor="#666666"
     borderopacity="1.0"
     inkscape:pageopacity="0.0"
     inkscape:pageshadow="2"
     inkscape:zoom="1.4"
     inkscape:cx="360.71429"
     inkscape:cy="368.92857"
     inkscape:document-units="mm"
     inkscape:current-layer="g127"
     inkscape:document-rotation="0"
     showgrid="false"
     width="100mm"
     inkscape:pagecheckerboard="0"
     inkscape:window-width="2560"
     inkscape:window-height="1460"
     inkscape:window-x="0"
     inkscape:window-y="0"
     inkscape:window-maximized="1" />
  <metadata
     id="metadata137">
    <rdf:RDF>
      <cc:Work
         rdf:about="">
        <dc:format>image/svg+xml</dc:format>
        <dc:type
           rdf:resource="http://purl.org/dc/dcmitype/StillImage" />
      </cc:Work>
    </rdf:RDF>
  </metadata>
  <g
     inkscape:label="Layer 1"
     inkscape:groupmode="layer"
     id="layer1">
    <g
       id="g127"
       transform="translate(-135.86398,136.60813)">
      <path
         style="fill:#e5e5e5;stroke-width:0.192474"
         d="m 155.7786,-39.198543 c 0.44991,-0.04052 1.18612,-0.04052 1.63603,0 0.44991,0.04052 0.0818,0.07368 -0.81802,0.07368 -0.89981,0 -1.26792,-0.03317 -0.81801,-0.07368 z m 7.51157,-1.96e-4 c 0.4527,-0.04067 1.14561,-0.04008 1.53978,0.0015 0.39419,0.04132 0.0238,0.07462 -0.82309,0.07393 -0.84689,-7.28e-4 -1.1694,-0.03455 -0.71669,-0.0752 z m -11.36105,-0.187183 c 0.23819,-0.0459 0.62795,-0.0459 0.86613,0 0.23819,0.0459 0.0433,0.08341 -0.43306,0.08341 -0.47637,0 -0.67125,-0.03754 -0.43307,-0.08341 z m 15.7851,-3.86e-4 c 0.23942,-0.04605 0.58587,-0.0443 0.7699,0.0036 0.18402,0.04816 -0.0119,0.08584 -0.43531,0.08371 -0.42344,-0.0022 -0.57401,-0.04154 -0.33459,-0.08759 z m -18.47748,-0.192471 c 0.23941,-0.04605 0.58586,-0.0443 0.76989,0.0036 0.18402,0.04816 -0.0119,0.08585 -0.43531,0.08371 -0.42344,-0.0022 -0.57401,-0.04154 -0.33458,-0.08759 z m 20.88116,0.0036 c 0.18525,-0.04845 0.4884,-0.04845 0.67366,0 0.18525,0.04845 0.0337,0.08802 -0.33683,0.08802 -0.37051,0 -0.52209,-0.03957 -0.33683,-0.08802 z m -23.09686,-0.192573 c 0.18525,-0.04838 0.4884,-0.04838 0.67366,0 0.18526,0.04845 0.0337,0.08803 -0.33683,0.08803 -0.37051,0 -0.52209,-0.03965 -0.33683,-0.08803 z m 25.11784,0.0051 c 0.13232,-0.0534 0.34885,-0.0534 0.48118,0 0.13233,0.0534 0.0241,0.09708 -0.24059,0.09708 -0.26466,0 -0.37292,-0.04365 -0.24059,-0.09708 z m -26.94634,-0.192471 c 0.13232,-0.0534 0.34886,-0.0534 0.48118,0 0.13233,0.0534 0.0241,0.09708 -0.24059,0.09708 -0.26465,0 -0.37292,-0.04372 -0.24059,-0.09708 z m 28.48612,0 c 0.13233,-0.0534 0.34887,-0.0534 0.48119,0 0.13233,0.0534 0.0241,0.09708 -0.24059,0.09708 -0.26465,0 -0.37292,-0.04372 -0.2406,-0.09708 z m -30.21839,-0.192479 c 0.13233,-0.0534 0.34886,-0.0534 0.48119,0 0.13232,0.0534 0.0241,0.09709 -0.24059,0.09709 -0.26465,0 -0.37292,-0.04372 -0.2406,-0.09709 z m 31.75819,0 c 0.13232,-0.0534 0.34886,-0.0534 0.48118,0 0.13233,0.0534 0.0241,0.09709 -0.24059,0.09709 -0.26465,0 -0.37292,-0.04372 -0.24059,-0.09709 z m -33.29798,-0.192472 c 0.13233,-0.05339 0.34886,-0.05339 0.48119,0 0.13232,0.0534 0.0241,0.09708 -0.2406,0.09708 -0.26465,0 -0.37292,-0.04365 -0.24059,-0.09708 z m 34.65732,-0.0036 c 0.13894,-0.05558 0.30496,-0.04874 0.36891,0.0152 0.064,0.06394 -0.0497,0.109446 -0.25262,0.101095 -0.22422,-0.0092 -0.26983,-0.05485 -0.11629,-0.116292 z m 1.15485,-0.192479 c 0.13893,-0.05558 0.30495,-0.04874 0.36891,0.0152 0.0639,0.06394 -0.0498,0.109447 -0.25263,0.101088 -0.22422,-0.0092 -0.26983,-0.05485 -0.11628,-0.116284 z m -37.71334,-0.397818 c -0.23941,-0.305272 -0.2326,-0.312081 0.0727,-0.07267 0.18525,0.145289 0.33683,0.296862 0.33683,0.336829 0,0.158412 -0.15806,0.05645 -0.40951,-0.264163 z m -0.31574,-1.010486 c 0,-0.37051 0.0396,-0.522084 0.088,-0.336829 0.0484,0.185255 0.0484,0.488402 0,0.673657 -0.0485,0.185255 -0.088,0.03368 -0.088,-0.336828 z m 19.53956,-0.141899 c 0.55577,-0.03885 1.4652,-0.03885 2.02097,0 0.55577,0.03885 0.10105,0.07071 -1.01048,0.07071 -1.11154,0 -1.56626,-0.03179 -1.01049,-0.07071 z m -5.67798,-0.188434 c 0.29112,-0.04408 0.76749,-0.04408 1.0586,0 0.29113,0.04408 0.053,0.08018 -0.5293,0.08018 -0.58223,0 -0.82042,-0.03608 -0.5293,-0.08018 z m 12.51345,-1.96e-4 c 0.29257,-0.04423 0.72563,-0.04307 0.96237,0.0029 0.23673,0.04568 -0.003,0.08188 -0.53196,0.08044 -0.5293,-0.0015 -0.72298,-0.03885 -0.43041,-0.08307 z m -15.49455,-0.190486 c 0.23942,-0.04605 0.58588,-0.0443 0.76989,0.0036 0.18403,0.04816 -0.0118,0.08584 -0.43531,0.0837 -0.42344,-0.0022 -0.574,-0.04154 -0.33458,-0.08759 z m 18.37901,0.0036 c 0.18525,-0.04845 0.4884,-0.04845 0.67365,0 0.18526,0.04845 0.0337,0.08802 -0.33683,0.08802 -0.37051,0 -0.52208,-0.03965 -0.33682,-0.08802 z m -20.78718,-0.192923 c 0.18526,-0.04838 0.4884,-0.04838 0.67366,0 0.18526,0.04845 0.0337,0.08803 -0.33683,0.08803 -0.37051,0 -0.52208,-0.03965 -0.33683,-0.08803 z m 23.10053,-7.27e-4 c 0.18727,-0.04881 0.44711,-0.04561 0.57742,0.0073 0.13031,0.05274 -0.0229,0.09265 -0.34049,0.08873 -0.31758,-0.0036 -0.42421,-0.04707 -0.23693,-0.09586 z m -25.02161,-0.192479 c 0.18728,-0.04881 0.44712,-0.04561 0.57743,0.0073 0.13031,0.05274 -0.0229,0.09265 -0.34049,0.08873 -0.31758,-0.0036 -0.42421,-0.04707 -0.23694,-0.09586 z m 26.65397,0.0058 c 0.13233,-0.0534 0.34886,-0.0534 0.48119,0 0.13232,0.0534 0.0241,0.09708 -0.2406,0.09708 -0.26465,0 -0.37291,-0.04365 -0.24059,-0.09708 z m -28.48613,-0.192472 c 0.13233,-0.05339 0.34887,-0.05339 0.48119,0 0.13233,0.0534 0.0241,0.09708 -0.24059,0.09708 -0.26466,0 -0.37292,-0.04372 -0.2406,-0.09708 z m 30.02592,0 c 0.13233,-0.05339 0.34886,-0.05339 0.48118,0 0.13234,0.0534 0.0241,0.09708 -0.24059,0.09708 -0.26465,0 -0.37292,-0.04372 -0.24059,-0.09708 z m -34.58198,-0.369688 c 0.009,-0.224225 0.0548,-0.269829 0.11629,-0.116291 0.0556,0.138945 0.0487,0.304951 -0.0152,0.368909 -0.0639,0.06394 -0.10944,-0.04976 -0.10108,-0.252618 z m 3.07959,-0.128316 c 0.0102,-0.289377 0.0516,-0.337273 0.12509,-0.144357 0.0605,0.15879 0.20518,0.352345 0.32164,0.430118 0.1306,0.08722 0.0827,0.142538 -0.1251,0.144357 -0.2263,0.0022 -0.33184,-0.139171 -0.32163,-0.430118 z m 32.86174,0.301583 c 0.13894,-0.05558 0.30495,-0.04874 0.3689,0.0152 0.064,0.06394 -0.0497,0.109446 -0.25261,0.101088 -0.22423,-0.0092 -0.26983,-0.05485 -0.11629,-0.116285 z m 1.34732,-0.192472 c 0.13893,-0.05558 0.30495,-0.04874 0.36891,0.0152 0.0639,0.06394 -0.0498,0.109454 -0.25263,0.101096 -0.22422,-0.0092 -0.26983,-0.05485 -0.11628,-0.116285 z m 0.96237,-0.192478 c 0.13893,-0.05558 0.30494,-0.04874 0.3689,0.0152 0.0639,0.06394 -0.0497,0.109446 -0.25262,0.101088 -0.22422,-0.0092 -0.26983,-0.05485 -0.11628,-0.116285 z m -38.05854,-0.750688 c 0.009,-0.224225 0.0549,-0.26983 0.11629,-0.116285 0.0556,0.138938 0.0487,0.304952 -0.0152,0.36891 -0.0639,0.06394 -0.10944,-0.04976 -0.10109,-0.252625 z m 40.40431,-0.152869 c 0,-0.03994 0.15157,-0.19154 0.33683,-0.336828 0.30527,-0.239415 0.31208,-0.232606 0.0727,0.07267 -0.25144,0.320613 -0.4095,0.422567 -0.4095,0.264155 z m -1.11732,-6.567678 c 0.004,-0.31758 0.0471,-0.424196 0.0959,-0.236926 0.0488,0.18727 0.0456,0.447111 -0.007,0.577421 -0.0527,0.13031 -0.0926,-0.02292 -0.0887,-0.340495 z m 2.87997,-0.673657 c 0,-0.26465 0.0436,-0.372918 0.0971,-0.240593 0.0534,0.132325 0.0534,0.348861 0,0.481186 -0.0534,0.132325 -0.0971,0.02408 -0.0971,-0.240593 z m -2.87284,-0.577422 c 0,-0.37051 0.0396,-0.522083 0.088,-0.336828 0.0485,0.185255 0.0485,0.488402 0,0.673657 -0.0484,0.185255 -0.088,0.03368 -0.088,-0.336829 z m -32.46414,-2.069093 c 0.84824,-1.920997 3.34853,-6.576844 5.19398,-9.671809 8.02167,-13.452987 18.2754,-24.64019 30.69003,-33.483962 4.19606,-2.989128 10.16547,-6.430468 13.85812,-7.989158 1.75081,-0.73902 2.30968,-1.21324 2.30968,-1.95981 0,-0.61145 -0.81279,-1.41348 -1.43246,-1.41348 -0.71826,0 -5.37595,2.18615 -8.57617,4.02534 -18.17129,10.443154 -33.36101,26.803596 -43.40127,46.746343 -1.89879,3.771532 -1.82616,3.707413 -2.55448,2.254865 -2.28247,-4.552097 -2.33319,-11.922149 -0.12848,-18.669961 1.69556,-5.189476 5.84356,-11.879651 13.23437,-21.345268 2.17473,-2.785244 1.98615,-2.768861 2.43848,-0.2118 0.29152,1.647995 1.393,5.086467 1.99711,6.234326 l 0.44475,0.845062 0.13425,-2.384855 c 0.3156,-5.606501 1.39868,-10.474952 3.05947,-13.752372 0.35046,-0.69159 1.75842,-2.21106 5.03203,-5.43056 2.49997,-2.45865 4.61334,-4.47028 4.69636,-4.47028 0.083,0 0.26056,0.87831 0.39453,1.9518 0.32369,2.59359 0.9559,5.0194 1.97663,7.58434 l 0.83911,2.10853 0.0441,-1.05861 c 0.24485,-5.87605 1.27606,-11.14898 2.85657,-14.60658 l 0.68002,-1.48763 3.21397,-2.13668 c 1.76768,-1.17517 4.25296,-2.7217 5.52285,-3.43675 2.21957,-1.24979 7.19456,-3.63818 7.31434,-3.51147 0.0319,0.0337 -0.062,0.66757 -0.20867,1.40859 -0.51623,2.60888 -0.58713,9.96935 -0.0906,9.40269 0.079,-0.0902 0.34582,-0.72693 0.5929,-1.41502 1.34759,-3.7529 3.81108,-8.44977 5.68242,-10.83405 l 0.8118,-1.03433 2.18804,-0.51456 c 6.30853,-1.48358 12.12107,-1.80954 17.60041,-0.98701 2.10505,0.316 4.8936,1.01826 4.8936,1.23237 0,0.56897 -2.33014,8.15457 -2.59197,8.43799 -0.0273,0.0295 -0.86269,0.17809 -1.8565,0.33019 -3.23535,0.49514 -6.50402,1.65751 -8.52736,3.03241 l -0.71009,0.48252 4.19644,0.10716 c 2.30805,0.0589 4.42594,0.16454 4.70643,0.23468 l 0.50999,0.12754 -0.86582,1.95411 c -2.26499,5.11197 -5.50317,10.97565 -9.01674,16.3275 l -1.98099,3.017431 -1.79598,0.572518 c -3.21892,1.026119 -8.82577,1.965265 -13.54013,2.267961 -3.29211,0.211379 -3.32422,0.237713 -1.46757,1.203649 2.86296,1.489475 6.33899,2.46988 9.99701,2.819621 0.77255,0.07386 1.37885,0.204089 1.34731,0.289391 -0.18182,0.491836 -5.74501,6.725893 -8.61832,9.657623 -3.34303,3.41101 -3.38666,3.446692 -5.01073,4.099209 -4.21879,1.695012 -8.80272,2.473838 -14.66279,2.491253 -2.2964,0.0065 -4.11528,0.07173 -4.04195,0.14427 0.34955,0.345697 3.76787,1.89686 5.13765,2.331358 2.03611,0.645853 3.08412,0.872013 5.36825,1.158494 l 1.90373,0.238767 -2.54466,2.015473 c -7.49187,5.933878 -12.91066,9.247175 -19.36346,11.839698 -5.62429,2.259659 -13.03947,3.937655 -17.40075,3.937655 h -0.96752 z m 34.9136,-2.790872 c 0.7976,-0.849804 0.97041,-1.002614 0.97041,-0.85809 0,0.03092 -0.41141,0.442303 -0.91425,0.91425 l -0.91425,0.85809 z m 6.90102,-0.08336 c 0.13893,-0.05558 0.30495,-0.04874 0.36891,0.0152 0.0639,0.06394 -0.0498,0.109453 -0.25263,0.101095 -0.22422,-0.0092 -0.26983,-0.05485 -0.11628,-0.116285 z m 1.53,-0.19712 c 0.23942,-0.04605 0.58587,-0.0443 0.7699,0.0036 0.18402,0.04816 -0.0119,0.08584 -0.43531,0.08371 -0.42344,-0.0022 -0.57401,-0.04154 -0.33459,-0.08759 z m 3.26981,-0.195585 c 0.34405,-0.0427 0.90703,-0.0427 1.25108,0 0.34405,0.0427 0.0626,0.07763 -0.62554,0.07763 -0.6881,0 -0.96959,-0.03492 -0.62554,-0.07763 z m 19.72857,-0.191097 c 0.29111,-0.04408 0.76749,-0.04408 1.0586,0 0.29112,0.04408 0.053,0.08018 -0.5293,0.08018 -0.58223,0 -0.82042,-0.03608 -0.5293,-0.08018 z m 3.27205,-0.187292 c 0.18526,-0.04845 0.48841,-0.04845 0.67366,0 0.18526,0.04845 0.0337,0.08802 -0.33683,0.08802 -0.37051,0 -0.52208,-0.03965 -0.33683,-0.08802 z m 2.12088,-0.193177 c 0.18727,-0.04881 0.44711,-0.04561 0.57742,0.0073 0.13031,0.05274 -0.0229,0.09266 -0.3405,0.08873 -0.31758,-0.0036 -0.42419,-0.04707 -0.23692,-0.09586 z m 1.64439,-0.190572 c 0.13894,-0.05558 0.30495,-0.04874 0.36891,0.0152 0.064,0.06394 -0.0498,0.109454 -0.25262,0.101096 -0.22422,-0.0092 -0.26983,-0.05485 -0.11629,-0.116285 z m 1.34732,-0.192472 c 0.13894,-0.05558 0.30495,-0.04874 0.36891,0.0152 0.0639,0.06394 -0.0498,0.109446 -0.25262,0.101095 -0.22423,-0.0092 -0.26983,-0.05485 -0.11629,-0.116292 z m -33.49045,-1.539793 c 0.13894,-0.05558 0.30496,-0.04874 0.36891,0.0152 0.064,0.06394 -0.0497,0.109454 -0.25262,0.101095 -0.22423,-0.0092 -0.26983,-0.05485 -0.11629,-0.116285 z m 1.24272,-0.194377 c 0.18727,-0.04881 0.44711,-0.04561 0.57742,0.0073 0.13031,0.05274 -0.0229,0.09265 -0.3405,0.08873 -0.31758,-0.0036 -0.42419,-0.04707 -0.23692,-0.09587 z m 2.30602,-0.196953 c 0.29112,-0.04408 0.76749,-0.04408 1.0586,0 0.29112,0.04408 0.053,0.08019 -0.5293,0.08019 -0.58223,0 -0.82042,-0.03608 -0.5293,-0.08019 z m 6.92906,-0.19824 c 1.138,-0.03404 3.00018,-0.03404 4.13818,0 1.138,0.03404 0.20691,0.06183 -2.06909,0.06183 -2.27601,0 -3.2071,-0.02786 -2.06909,-0.06183 z m 11.84359,0.0015 c 0.55932,-0.03899 1.42545,-0.03863 1.92474,7.27e-4 0.49928,0.0395 0.0417,0.07144 -1.01695,0.07093 -1.0586,-5.82e-4 -1.46711,-0.03281 -0.90779,-0.0718 z m 4.80539,-0.186223 c 0.23819,-0.0459 0.62795,-0.0459 0.86613,0 0.23819,0.0459 0.0433,0.08341 -0.43306,0.08341 -0.47637,0 -0.67125,-0.03754 -0.43307,-0.08341 z m 2.40959,-0.19002 c 0.18727,-0.04881 0.44711,-0.04561 0.57742,0.0073 0.13031,0.05274 -0.0229,0.09266 -0.34049,0.08873 -0.31758,-0.0036 -0.4242,-0.04707 -0.23693,-0.09586 z m 11.49665,0.06074 c 0,-0.04001 0.15157,-0.19154 0.33682,-0.336836 0.30528,-0.239407 0.31209,-0.232598 0.0727,0.07267 -0.25144,0.320613 -0.4095,0.422574 -0.4095,0.264162 z m -9.86428,-0.247278 c 0.13232,-0.0534 0.34885,-0.0534 0.48118,0 0.13233,0.0534 0.0241,0.09708 -0.24059,0.09708 -0.26466,0 -0.37292,-0.04365 -0.24059,-0.09708 z m 1.55181,-0.19648 c 0.13894,-0.05558 0.30496,-0.04874 0.36891,0.0152 0.064,0.06394 -0.0497,0.109447 -0.25262,0.101095 -0.22422,-0.0092 -0.26983,-0.05485 -0.11629,-0.116291 z m 1.15485,-0.192478 c 0.13893,-0.05558 0.30495,-0.04874 0.36891,0.0152 0.0639,0.06394 -0.0498,0.109447 -0.25263,0.101088 -0.22422,-0.0092 -0.26983,-0.05485 -0.11628,-0.116284 z m 0.96237,-0.192472 c 0.13894,-0.05558 0.30495,-0.04874 0.36891,0.0152 0.0639,0.06394 -0.0498,0.109454 -0.25263,0.101095 -0.22422,-0.0092 -0.26983,-0.05485 -0.11628,-0.116284 z m 7.54257,-0.518614 c 0,-0.03994 0.15156,-0.19154 0.33683,-0.336828 0.30527,-0.239415 0.31208,-0.232606 0.0727,0.07267 -0.25144,0.320614 -0.4095,0.422567 -0.4095,0.264155 z m -4.04195,-0.580396 c 0,-0.04161 0.13441,-0.127226 0.2987,-0.190268 0.17129,-0.06576 0.24854,-0.03346 0.18112,0.07564 -0.11304,0.182891 -0.47982,0.270513 -0.47982,0.114626 z m 5.44431,-3.100174 c 0.001,-0.5293 0.0388,-0.722986 0.0831,-0.430416 0.0442,0.29257 0.0431,0.725634 -0.003,0.962371 -0.0457,0.236731 -0.0819,-0.0029 -0.0804,-0.531955 z m -4.39782,-2.838986 -0.56531,-0.625543 0.62554,0.565317 c 0.34404,0.310923 0.62554,0.592414 0.62554,0.625535 0,0.1487 -0.15882,0.01775 -0.68577,-0.565309 z m 3.68149,0.104536 c -0.10446,-0.274311 -0.0823,-0.296418 0.10774,-0.107744 0.13154,0.130564 0.19069,0.28587 0.13142,0.345129 -0.0593,0.05929 -0.16688,-0.04758 -0.23916,-0.237385 z m -1.56427,-2.221751 -0.56532,-0.625536 0.62554,0.56531 c 0.58309,0.52695 0.71401,0.685769 0.56531,0.685769 -0.0331,0 -0.31462,-0.28149 -0.62553,-0.625543 z m -7.81917,-0.275831 c 0.13893,-0.05558 0.30495,-0.04874 0.3689,0.0152 0.064,0.06394 -0.0497,0.109446 -0.25262,0.101095 -0.22423,-0.0092 -0.26983,-0.05485 -0.11628,-0.116284 z m 6.74811,-0.590297 c -0.23941,-0.305279 -0.2326,-0.312088 0.0727,-0.07267 0.32061,0.251447 0.42257,0.409502 0.26415,0.409502 -0.0399,0 -0.19154,-0.151573 -0.33683,-0.336828 z m -8.1635,-0.253397 c -0.0698,-0.112909 -0.0856,-0.246558 -0.0351,-0.297014 0.0504,-0.05049 0.14301,0.0419 0.20571,0.205282 0.13014,0.339156 0.0192,0.398815 -0.17058,0.09173 z"
         id="path131" />
      <path
         style="fill:#656565;stroke-width:0.192474"
         d="m 154.87279,-39.234347 c -7.07366,-0.336486 -14.0639,-1.122609 -14.64308,-1.646758 -0.47538,-0.430206 -0.475,-1.399743 10e-4,-3.547125 0.87613,-3.949215 2.4169,-7.926181 5.29439,-13.665646 9.97655,-19.899266 25.22799,-36.335477 43.41516,-46.787754 3.20021,-1.83919 7.85791,-4.02534 8.57617,-4.02534 0.61967,0 1.43247,0.80204 1.43247,1.41349 0,0.74656 -0.55888,1.22079 -2.30969,1.95981 -3.69265,1.55868 -9.66206,5.00003 -13.85811,7.989147 -12.44568,8.86589 -22.57462,19.924815 -30.75629,33.580196 -2.33357,3.894778 -5.67599,10.498211 -6.94582,13.722504 -0.94554,2.400829 -2.29808,6.877707 -2.1275,7.04196 0.046,0.04437 1.38296,0.217481 2.97087,0.38471 10.52078,1.107995 21.04975,1.013803 29.69916,-0.265683 3.13009,-0.463028 4.25471,-0.804098 5.02545,-1.524073 0.9757,-0.911435 0.9678,-1.392926 -0.0555,-3.386669 -0.49631,-0.966955 -0.96712,-2.184774 -1.04623,-2.706261 -0.56222,-3.70601 1.99171,-7.280385 6.25914,-8.760076 2.52175,-0.8744 4.07869,-0.976288 17.37899,-1.137311 13.21038,-0.159932 15.29317,-0.284291 19.72018,-1.177453 2.94169,-0.593491 4.78923,-1.499237 5.66488,-2.777159 0.62032,-0.905295 0.55511,-2.2805 -0.16173,-3.410843 -0.99803,-1.573729 -2.48417,-2.39167 -5.90379,-3.249339 -1.49371,-0.374634 -1.67174,-0.469343 -1.9401,-1.032113 -0.25439,-0.533461 -0.25875,-0.696274 -0.0314,-1.170753 0.42311,-0.88278 1.0391,-0.978317 3.09086,-0.47941 4.95569,1.20503 7.94965,3.877384 8.19276,7.312684 0.0493,0.69738 -0.008,1.6285 -0.12705,2.069159 -0.5059,1.869602 -2.49558,3.750334 -4.95739,4.685913 -0.61824,0.234962 -2.12013,0.630766 -3.33753,0.879572 -4.48319,0.916251 -6.98954,1.067897 -20.40223,1.234435 -12.86838,0.159779 -13.98023,0.22704 -16.21849,0.981052 -2.23494,0.752893 -3.77784,2.172866 -4.29538,3.953143 -0.35497,1.221034 -0.26567,1.620796 0.83473,3.73713 1.00356,1.930068 1.1922,3.025194 0.74645,4.333415 -0.62753,1.841675 -2.03851,3.054955 -4.35665,3.746202 -4.22025,1.258433 -16.58344,2.117484 -24.82912,1.725244 z"
         id="path129" />
    </g>
  </g>
</svg>
