<?xml version="1.0" encoding="UTF-8" standalone="no"?>
<svg
   width="100mm"
   height="100mm"
   viewBox="0 0 100 100"
   version="1.1"
   id="svg140"
   inkscape:version="1.1.1 (3bf5ae0d25, 2021-09-20)"
   sodipodi:docname="logo.svg"
   xmlns:inkscape="http://www.inkscape.org/namespaces/inkscape"
   xmlns:sodipodi="http://sodipodi.sourceforge.net/DTD/sodipodi-0.dtd"
   xmlns="http://www.w3.org/2000/svg"
   xmlns:svg="http://www.w3.org/2000/svg"
   xmlns:rdf="http://www.w3.org/1999/02/22-rdf-syntax-ns#"
   xmlns:cc="http://creativecommons.org/ns#"
   xmlns:dc="http://purl.org/dc/elements/1.1/">
  <defs
     id="defs134" />
  <sodipodi:namedview
     id="base"
     pagecolor="#ffffff"
     bordercolor="#666666"
     borderopacity="1.0"
     inkscape:pageopacity="0.0"
     inkscape:pageshadow="2"
     inkscape:zoom="2.8"
     inkscape:cx="290"
     inkscape:cy="227.32143"
     inkscape:document-units="mm"
     inkscape:current-layer="g127"
     inkscape:document-rotation="0"
     showgrid="false"
     width="100mm"
     inkscape:pagecheckerboard="0"
     inkscape:window-width="2560"
     inkscape:window-height="1460"
     inkscape:window-x="0"
     inkscape:window-y="0"
     inkscape:window-maximized="1" />
  <metadata
     id="metadata137">
    <rdf:RDF>
      <cc:Work
         rdf:about="">
        <dc:format>image/svg+xml</dc:format>
        <dc:type
           rdf:resource="http://purl.org/dc/dcmitype/StillImage" />
      </cc:Work>
    </rdf:RDF>
  </metadata>
  <g
     inkscape:label="Layer 1"
     inkscape:groupmode="layer"
     id="layer1">
    <g
       id="g127"
       transform="translate(-135.86398,136.60813)">
      <path
         style="fill:#e5e5e5;stroke-width:0.192474"
         d="m 146.88904,-54.407451 c 0.84824,-1.920997 3.34853,-6.576844 5.19398,-9.671809 8.02167,-13.452987 18.2754,-24.64019 30.69003,-33.483962 4.19606,-2.989128 10.16547,-6.430468 13.85812,-7.989158 1.75081,-0.73902 2.30968,-1.21324 2.30968,-1.95981 0,-0.61145 -0.81279,-1.41348 -1.43246,-1.41348 -0.71826,0 -5.37595,2.18615 -8.57617,4.02534 -18.17129,10.443154 -33.36101,26.803596 -43.40127,46.746343 -1.89879,3.771532 -1.82616,3.707413 -2.55448,2.254865 -2.28247,-4.552097 -2.33319,-11.922149 -0.12848,-18.669961 1.69556,-5.189476 5.84356,-11.879651 13.23437,-21.345268 2.17473,-2.785244 1.98615,-2.768861 2.43848,-0.2118 0.29152,1.647995 1.393,5.086467 1.99711,6.234326 l 0.44475,0.845062 0.13425,-2.384855 c 0.3156,-5.606501 1.39868,-10.474952 3.05947,-13.752372 0.35046,-0.69159 1.75842,-2.21106 5.03203,-5.43056 2.49997,-2.45865 4.61334,-4.47028 4.69636,-4.47028 0.083,0 0.26056,0.87831 0.39453,1.9518 0.32369,2.59359 0.9559,5.0194 1.97663,7.58434 l 0.83911,2.10853 0.0441,-1.05861 c 0.24485,-5.87605 1.27606,-11.14898 2.85657,-14.60658 l 0.68002,-1.48763 3.21397,-2.13668 c 1.76768,-1.17517 4.25296,-2.7217 5.52285,-3.43675 2.21957,-1.24979 7.19456,-3.63818 7.31434,-3.51147 0.0319,0.0337 -0.062,0.66757 -0.20867,1.40859 -0.51623,2.60888 -0.58713,9.96935 -0.0906,9.40269 0.079,-0.0902 0.34582,-0.72693 0.5929,-1.41502 1.34759,-3.7529 3.81108,-8.44977 5.68242,-10.83405 l 0.8118,-1.03433 2.18804,-0.51456 c 6.30853,-1.48358 12.12107,-1.80954 17.60041,-0.98701 2.10505,0.316 4.8936,1.01826 4.8936,1.23237 0,0.56897 -2.33014,8.15457 -2.59197,8.43799 -0.0273,0.0295 -0.86269,0.17809 -1.8565,0.33019 -3.23535,0.49514 -6.50402,1.65751 -8.52736,3.03241 l -0.71009,0.48252 4.19644,0.10716 c 2.30805,0.0589 4.42594,0.16454 4.70643,0.23468 l 0.50999,0.12754 -0.86582,1.95411 c -2.26499,5.11197 -5.50317,10.97565 -9.01674,16.3275 l -1.98099,3.017431 -1.79598,0.572518 c -3.21892,1.026119 -8.82577,1.965265 -13.54013,2.267961 -3.29211,0.211379 -3.32422,0.237713 -1.46757,1.203649 2.86296,1.489475 6.33899,2.46988 9.99701,2.819621 0.77255,0.07386 1.37885,0.204089 1.34731,0.289391 -0.18182,0.491836 -5.74501,6.725893 -8.61832,9.657623 -3.34303,3.41101 -3.38666,3.446692 -5.01073,4.099209 -4.21879,1.695012 -8.80272,2.473838 -14.66279,2.491253 -2.2964,0.0065 -4.11528,0.07173 -4.04195,0.14427 0.34955,0.345697 3.76787,1.89686 5.13765,2.331358 2.03611,0.645853 3.08412,0.872013 5.36825,1.158494 l 1.90373,0.238767 -2.54466,2.015473 c -7.49187,5.933878 -12.91066,9.247175 -19.36346,11.839698 -5.62429,2.259659 -13.03947,3.937655 -17.40075,3.937655 h -0.96752 z"
         id="path131"
         sodipodi:nodetypes="cssssscsssssscsssscsccscsscccsscsssccsccscsscsssscssccsscssscc" />
      <path
         style="fill:#656565;stroke-width:0.192474"
         d="m 154.87279,-39.234347 c -7.07366,-0.336486 -14.0639,-1.122609 -14.64308,-1.646758 -0.47538,-0.430206 -0.475,-1.399743 10e-4,-3.547125 0.87613,-3.949215 2.4169,-7.926181 5.29439,-13.665646 9.97655,-19.899266 25.22799,-36.335477 43.41516,-46.787754 3.20021,-1.83919 7.85791,-4.02534 8.57617,-4.02534 0.61967,0 1.43247,0.80204 1.43247,1.41349 0,0.74656 -0.55888,1.22079 -2.30969,1.95981 -3.69265,1.55868 -9.66206,5.00003 -13.85811,7.989147 -12.44568,8.86589 -22.57462,19.924815 -30.75629,33.580196 -2.33357,3.894778 -5.67599,10.498211 -6.94582,13.722504 -0.94554,2.400829 -2.29808,6.877707 -2.1275,7.04196 0.046,0.04437 1.38296,0.217481 2.97087,0.38471 10.52078,1.107995 21.04975,1.013803 29.69916,-0.265683 3.13009,-0.463028 4.25471,-0.804098 5.02545,-1.524073 0.9757,-0.911435 0.9678,-1.392926 -0.0555,-3.386669 -0.49631,-0.966955 -0.96712,-2.184774 -1.04623,-2.706261 -0.56222,-3.70601 1.99171,-7.280385 6.25914,-8.760076 2.52175,-0.8744 4.07869,-0.976288 17.37899,-1.137311 13.21038,-0.159932 15.29317,-0.284291 19.72018,-1.177453 2.94169,-0.593491 4.78923,-1.499237 5.66488,-2.777159 0.62032,-0.905295 0.55511,-2.2805 -0.16173,-3.410843 -0.99803,-1.573729 -2.48417,-2.39167 -5.90379,-3.249339 -1.49371,-0.374634 -1.67174,-0.469343 -1.9401,-1.032113 -0.25439,-0.533461 -0.25875,-0.696274 -0.0314,-1.170753 0.42311,-0.88278 1.0391,-0.978317 3.09086,-0.47941 4.95569,1.20503 7.94965,3.877384 8.19276,7.312684 0.0493,0.69738 -0.008,1.6285 -0.12705,2.069159 -0.5059,1.869602 -2.49558,3.750334 -4.95739,4.685913 -0.61824,0.234962 -2.12013,0.630766 -3.33753,0.879572 -4.48319,0.916251 -6.98954,1.067897 -20.40223,1.234435 -12.86838,0.159779 -13.98023,0.22704 -16.21849,0.981052 -2.23494,0.752893 -3.77784,2.172866 -4.29538,3.953143 -0.35497,1.221034 -0.26567,1.620796 0.83473,3.73713 1.00356,1.930068 1.1922,3.025194 0.74645,4.333415 -0.62753,1.841675 -2.03851,3.054955 -4.35665,3.746202 -4.22025,1.258433 -16.58344,2.117484 -24.82912,1.725244 z"
         id="path129" />
    </g>
  </g>
</svg>
